<svg id="visual" viewBox="0 0 900 600" width="900" height="600" xmlns="http://www.w3.org/2000/svg"
     xmlns:xlink="http://www.w3.org/1999/xlink" version="1.1">
    <g transform="translate(462.7996808603914 291.7726424536017)">
        <path d="M168.6 -187.1C208.7 -167.3 224.5 -104.9 208.6 -57.2C192.7 -9.5 145.1 23.4 113.4 53.6C81.8 83.9 66.2 111.5 34.3 145.2C2.4 178.9 -45.8 218.6 -80 210.3C-114.1 201.9 -134.1 145.5 -165.6 94.1C-197 42.7 -239.8 -3.6 -240.3 -49.5C-240.7 -95.5 -198.8 -141.2 -151.7 -159.7C-104.6 -178.3 -52.3 -169.6 6 -176.8C64.3 -183.9 128.6 -206.9 168.6 -187.1"
              fill="#273036"></path>
    </g>
</svg>