<svg id="visual" viewBox="0 0 900 600" width="900" height="600" xmlns="http://www.w3.org/2000/svg" xmlns:xlink="http://www.w3.org/1999/xlink" version="1.1"><g transform="translate(402.57248813454015 309.19142559317913)"><path d="M129.2 -132.9C177.5 -113.5 233.5 -82.3 256.6 -33.2C279.6 16 269.7 83 227.9 109.1C186 135.2 112.3 120.5 56.8 129C1.3 137.5 -36 169.3 -71.8 168.7C-107.7 168.1 -142.2 135 -158.5 96.5C-174.9 57.9 -173.1 13.9 -173.6 -38.8C-174 -91.4 -176.7 -152.6 -148.1 -175.4C-119.6 -198.2 -59.8 -182.6 -9.6 -171.1C40.5 -159.6 81 -152.2 129.2 -132.9" fill="#273036"></path></g></svg>